<?xml version="1.0" encoding="UTF-8" standalone="no"?>
<svg
   xmlns:dc="http://purl.org/dc/elements/1.1/"
   xmlns:cc="http://creativecommons.org/ns#"
   xmlns:rdf="http://www.w3.org/1999/02/22-rdf-syntax-ns#"
   xmlns:svg="http://www.w3.org/2000/svg"
   xmlns="http://www.w3.org/2000/svg"
   xmlns:sodipodi="http://sodipodi.sourceforge.net/DTD/sodipodi-0.dtd"
   xmlns:inkscape="http://www.inkscape.org/namespaces/inkscape"
   id="Capa_1"
   enable-background="new 0 0 512 512"
   height="512"
   viewBox="0 0 512 512"
   width="512"
   version="1.1"
   sodipodi:docname="logo.svg"
   inkscape:version="1.0.1 (3bc2e813f5, 2020-09-07)">
  <metadata
     id="metadata41">
    <rdf:RDF>
      <cc:Work
         rdf:about="">
        <dc:format>image/svg+xml</dc:format>
        <dc:type
           rdf:resource="http://purl.org/dc/dcmitype/StillImage" />
        <dc:title></dc:title>
      </cc:Work>
    </rdf:RDF>
  </metadata>
  <defs
     id="defs39" />
  <sodipodi:namedview
     pagecolor="#ffffff"
     bordercolor="#666666"
     borderopacity="1"
     objecttolerance="10"
     gridtolerance="10"
     guidetolerance="10"
     inkscape:pageopacity="0"
     inkscape:pageshadow="2"
     inkscape:window-width="1366"
     inkscape:window-height="705"
     id="namedview37"
     showgrid="false"
     inkscape:zoom="0.44958265"
     inkscape:cx="726.08348"
     inkscape:cy="276.01857"
     inkscape:window-x="0"
     inkscape:window-y="30"
     inkscape:window-maximized="1"
     inkscape:current-layer="Capa_1"
     inkscape:document-rotation="0" />
  <rect
     style="fill:#009688;stroke-width:5.36807"
     id="rect852"
     width="1792.7738"
     height="343.61133"
     x="-190.32199"
     y="84.194336"
     inkscape:export-xdpi="185.754"
     inkscape:export-ydpi="185.754" />
  <circle
     style="fill:#009688;fill-opacity:1;stroke-width:6.28817;stroke-miterlimit:4;stroke-dasharray:none"
     id="path932"
     cx="256"
     cy="256"
     inkscape:export-xdpi="185.754"
     inkscape:export-ydpi="185.754"
     r="256" />
  <g
     id="g930"
     transform="matrix(1.4598414,0,0,1.4598414,-117.7194,-44.727328)"
     inkscape:export-xdpi="185.754"
     inkscape:export-ydpi="185.754">
    <path
       d="M 396.387,371.833 H 123.871 c -4.561,0 -8.258,-2.86179 -8.258,-6.3924 V 39.424413 c 0,-3.530612 3.697,-6.392413 8.258,-6.392413 h 272.516 c 4.561,0 8.258,2.861801 8.258,6.392413 V 365.43982 c 0,3.53061 -3.697,6.39318 -8.258,6.39318 z"
       fill="#eceaec"
       id="path2"
       style="stroke-width:0.879822" />
    <path
       d="m 148.645,366.16648 c -13.682,0 -24.774,-8.59739 -24.774,-19.20227 V 33.32395 h -8.258 c -4.561,0 -8.258,2.865542 -8.258,6.400757 V 372.56724 c 0,3.53523 3.697,6.40076 8.258,6.40076 h 280.774 c 4.561,0 8.258,-2.86553 8.258,-6.40076 v -6.40076 z"
       fill="#dad8db"
       id="path4"
       style="stroke-width:0.880396" />
    <path
       d="M 346.88824,115.613 H 166.29358 c -4.53777,0 -8.20875,-3.698 -8.20875,-8.258 0,-4.56 3.67197,-8.258 8.20875,-8.258 h 180.59366 c 4.53779,0 8.20876,3.698 8.20876,8.258 9.9e-4,4.56 -3.67097,8.258 -8.20776,8.258 z"
       fill="#5d5360"
       id="path14"
       style="stroke-width:0.997014" />
    <path
       d="m 348.0556,82.581 h -97.75749 c -3.17881,0 -5.7504,-3.698 -5.7504,-8.258 0,-4.56 2.57229,-8.258 5.7504,-8.258 h 97.75749 c 3.17881,0 5.7504,3.698 5.7504,8.258 0,4.56 -2.57159,8.258 -5.7504,8.258 z"
       fill="#6f6571"
       id="path16"
       style="stroke-width:0.834471" />
    <g
       fill="#9bd7ee"
       id="g28"
       transform="translate(0,-14)">
      <path
         d="m 148.645,165.161 h -41.29 c -4.565,0 -8.258,3.698 -8.258,8.258 v 41.29 c 0,4.56 3.694,8.258 8.258,8.258 4.565,0 8.258,-3.698 8.258,-8.258 v -33.032 h 33.032 c 4.565,0 8.258,-3.698 8.258,-8.258 0,-4.56 -3.693,-8.258 -8.258,-8.258 z"
         id="path20" />
      <path
         d="M 148.645,330.323 H 115.613 V 297.29 c 0,-4.56 -3.694,-8.258 -8.258,-8.258 -4.565,0 -8.258,3.698 -8.258,8.258 v 41.29 c 0,4.56 3.694,8.258 8.258,8.258 h 41.29 c 4.565,0 8.258,-3.698 8.258,-8.258 0,-4.56 -3.693,-8.257 -8.258,-8.257 z"
         id="path22" />
      <path
         d="m 404.645,289.032 c -4.565,0 -8.258,3.698 -8.258,8.258 v 33.032 h -33.032 c -4.565,0 -8.258,3.698 -8.258,8.258 0,4.56 3.694,8.258 8.258,8.258 h 41.29 c 4.565,0 8.258,-3.698 8.258,-8.258 v -41.29 c 0,-4.56 -3.693,-8.258 -8.258,-8.258 z"
         id="path24" />
      <path
         d="m 404.645,165.161 h -41.29 c -4.565,0 -8.258,3.698 -8.258,8.258 0,4.56 3.694,8.258 8.258,8.258 h 33.032 v 33.032 c 0,4.56 3.694,8.258 8.258,8.258 4.564,0 8.258,-3.698 8.258,-8.258 v -41.29 c 0,-4.56 -3.693,-8.258 -8.258,-8.258 z"
         id="path26" />
    </g>
    <text
       xml:space="preserve"
       style="font-style:normal;font-variant:normal;font-weight:normal;font-stretch:normal;font-size:250.441px;line-height:1.25;font-family:'Cocon速 Next Arabic';-inkscape-font-specification:'Cocon速 Next Arabic';fill:#5d5360;fill-opacity:1;stroke:none;stroke-width:6.26101"
       x="193.91133"
       y="321.77658"
       id="text884"><tspan
         sodipodi:role="line"
         id="tspan882"
         x="193.91133"
         y="321.77658"
         style="font-style:normal;font-variant:normal;font-weight:normal;font-stretch:normal;font-family:'Footlight MT Light';-inkscape-font-specification:'Footlight MT Light, ';fill:#5d5360;fill-opacity:1;stroke-width:6.26101">T</tspan></text>
    <g
       id="g895"
       transform="translate(0,-14)">
      <rect
         style="fill:#5d5360;fill-opacity:1;stroke-width:3.78;stroke-miterlimit:4;stroke-dasharray:none"
         id="rect890"
         width="103.66315"
         height="48.888168"
         x="105.613"
         y="289.43484"
         ry="12.919692" />
      <text
         xml:space="preserve"
         style="font-style:normal;font-variant:normal;font-weight:normal;font-stretch:normal;font-size:47.4316px;line-height:1.25;font-family:'Cocon速 Next Arabic';-inkscape-font-specification:'Cocon速 Next Arabic';fill:#eceaec;fill-opacity:1;stroke:none;stroke-width:1.18579"
         x="112.06263"
         y="330.71622"
         id="text888"><tspan
           sodipodi:role="line"
           id="tspan886"
           x="112.06263"
           y="330.71622"
           style="font-style:normal;font-variant:normal;font-weight:normal;font-stretch:normal;font-family:Bahnschrift;-inkscape-font-specification:Bahnschrift;fill:#eceaec;fill-opacity:1;stroke-width:1.18579">OCR</tspan></text>
    </g>
    <path
       d="M 346.839,143.613 H 165.161 c -4.565,0 -8.258,-3.698 -8.258,-8.258 0,-4.56 3.694,-8.258 8.258,-8.258 h 181.677 c 4.565,0 8.258,3.698 8.258,8.258 10e-4,4.56 -3.693,8.258 -8.257,8.258 z"
       fill="#5d5360"
       id="path897" />
    <text
       xml:space="preserve"
       style="font-style:normal;font-variant:normal;font-weight:normal;font-stretch:normal;font-size:21.1299px;line-height:1.25;font-family:mry_KacstQurn;-inkscape-font-specification:mry_KacstQurn;fill:#5d5360;fill-opacity:1;stroke:none;stroke-width:0.528248"
       x="156.01103"
       y="81.388733"
       id="text901"><tspan
         sodipodi:role="line"
         id="tspan899"
         x="156.01103"
         y="81.388733"
         style="font-style:normal;font-variant:normal;font-weight:normal;font-stretch:normal;font-family:mry_KacstQurn;-inkscape-font-specification:mry_KacstQurn;fill:#5d5360;fill-opacity:1;stroke-width:0.528248">IMAGES</tspan></text>
    <path
       d="m 253.98736,357.613 h -92.86335 c -2.33336,0 -4.22101,-3.698 -4.22101,-8.258 0,-4.56 1.88816,-8.258 4.22101,-8.258 h 92.86284 c 2.33337,0 4.22101,3.698 4.22101,8.258 5.1e-4,4.56 -1.88764,8.258 -4.2205,8.258 z"
       fill="#5d5360"
       id="path903"
       style="stroke-width:0.714942" />
    <text
       xml:space="preserve"
       style="font-style:normal;font-variant:normal;font-weight:normal;font-stretch:normal;font-size:21.1299px;line-height:1.25;font-family:mry_KacstQurn;-inkscape-font-specification:mry_KacstQurn;fill:#5d5360;fill-opacity:1;stroke:none;stroke-width:0.528248"
       x="266.24313"
       y="357.04657"
       id="text907"><tspan
         sodipodi:role="line"
         id="tspan905"
         x="266.24313"
         y="357.04657"
         style="font-style:normal;font-variant:normal;font-weight:normal;font-stretch:normal;font-family:mry_KacstQurn;-inkscape-font-specification:mry_KacstQurn;fill:#5d5360;fill-opacity:1;stroke-width:0.528248">To DOCS</tspan></text>
  </g>
  <text
     xml:space="preserve"
     style="font-style:normal;font-weight:normal;font-size:252.376px;line-height:1.25;font-family:sans-serif;fill:#eceaec;fill-opacity:1;stroke:none;stroke-width:6.30943"
     x="634.72302"
     y="319.58688"
     id="text856"
     inkscape:export-xdpi="185.754"
     inkscape:export-ydpi="185.754"><tspan
       sodipodi:role="line"
       id="tspan854"
       x="634.72302"
       y="319.58688"
       style="font-style:normal;font-variant:normal;font-weight:normal;font-stretch:normal;font-family:Amin;-inkscape-font-specification:Amin;fill:#eceaec;fill-opacity:1;stroke-width:6.30943">Loly OCR</tspan></text>
</svg>
